<svg width="96" height="96" xmlns="http://www.w3.org/2000/svg" xmlns:xlink="http://www.w3.org/1999/xlink" overflow="hidden"><defs><clipPath id="clip0"><rect x="343" y="312" width="96" height="96"/></clipPath></defs><g clip-path="url(#clip0)" transform="translate(-343 -312)"><path d="M407 342C407 350.837 399.837 358 391 358 382.163 358 375 350.837 375 342 375 333.163 382.163 326 391 326 399.837 326 407 333.163 407 342Z" fill="#FFFFFF"/><path d="M423 394 423 378C423 375.6 421.8 373.2 419.8 371.6 415.4 368 409.8 365.6 404.2 364 400.2 362.8 395.8 362 391 362 386.6 362 382.2 362.8 377.8 364 372.2 365.6 366.6 368.4 362.2 371.6 360.2 373.2 359 375.6 359 378L359 394 423 394Z" fill="#FFFFFF"/></g></svg>