<svg width="96" height="96" xmlns="http://www.w3.org/2000/svg" xmlns:xlink="http://www.w3.org/1999/xlink" overflow="hidden"><defs><clipPath id="clip0"><rect x="392" y="284" width="96" height="96"/></clipPath></defs><g clip-path="url(#clip0)" transform="translate(-392 -284)"><path d="M442 314 438 314C435.8 314 434 312.2 434 310L434 302C434 299.8 435.8 298 438 298L442 298C444.2 298 446 299.8 446 302L446 310C446 312.2 444.2 314 442 314Z" fill="#FFFFFF"/><path d="M472 334 448 334 448 330 472 330 472 334ZM472 346 448 346 448 342 472 342 472 346ZM472 358 448 358 448 354 472 354 472 358ZM440 358 408 358 408 350C408 348.8 408.6 347.6 409.6 346.8 411.8 345.2 414.6 343.8 417.4 343 419.6 342.4 421.8 342 424 342 426.4 342 428.6 342.4 430.6 343 433.4 343.8 436.2 345 438.4 346.8 439.4 347.6 440 348.8 440 350L440 358ZM424 324C428.4 324 432 327.6 432 332 432 336.4 428.4 340 424 340 419.6 340 416 336.4 416 332 416 327.6 419.6 324 424 324ZM476 310 450 310C450 314.4 446.4 318 442 318L438 318C433.6 318 430 314.4 430 310L404 310C401.8 310 400 311.8 400 314L400 362C400 364.2 401.8 366 404 366L476 366C478.2 366 480 364.2 480 362L480 314C480 311.8 478.2 310 476 310Z" fill="#FFFFFF"/></g></svg>