<svg width="289" height="250" xmlns="http://www.w3.org/2000/svg" xmlns:xlink="http://www.w3.org/1999/xlink" overflow="hidden"><defs><clipPath id="clip0"><rect x="106" y="536" width="289" height="250"/></clipPath></defs><g clip-path="url(#clip0)" transform="translate(-106 -536)"><path d="M333.071 614.082 333.071 556.548 305.548 556.548 305.548 588.055 250.5 536 250.5 536 106 672.987 121.482 686 250.5 564.082 250.5 564.082 379.518 686 395 672.987Z" fill="#FFFFFF" fill-rule="evenodd"/><path d="M148 683.938 148 786 230.4 786 230.4 700.089 271.6 700.089 271.6 786 354 786 354 683.938 251 586 148 683.938ZM209.8 741.327 168.6 741.327 168.6 700.089 209.8 700.089 209.8 741.327ZM292.2 700.089 333.4 700.089 333.4 741.327 292.2 741.327 292.2 700.089Z" fill="#FFFFFF" fill-rule="evenodd"/></g></svg>