<svg width="289" height="250" xmlns="http://www.w3.org/2000/svg" xmlns:xlink="http://www.w3.org/1999/xlink" overflow="hidden"><defs><clipPath id="clip0"><rect x="1223" y="1023" width="289" height="250"/></clipPath></defs><g clip-path="url(#clip0)" transform="translate(-1223 -1023)"><path d="M1450.07 1101.08 1450.07 1043.55 1422.55 1043.55 1422.55 1075.05 1367.5 1023 1367.5 1023 1223 1159.99 1238.48 1173 1367.5 1051.08 1367.5 1051.08 1496.52 1173 1512 1159.99Z" fill-rule="evenodd"/><path d="M1264 1170.94 1264 1273 1346.4 1273 1346.4 1187.09 1387.6 1187.09 1387.6 1273 1470 1273 1470 1170.94 1367 1073 1264 1170.94ZM1325.8 1228.33 1284.6 1228.33 1284.6 1187.09 1325.8 1187.09 1325.8 1228.33ZM1408.2 1187.09 1449.4 1187.09 1449.4 1228.33 1408.2 1228.33 1408.2 1187.09Z" fill-rule="evenodd"/></g></svg>