<svg width="96" height="96" xmlns="http://www.w3.org/2000/svg" xmlns:xlink="http://www.w3.org/1999/xlink" overflow="hidden"><defs><clipPath id="clip0"><rect x="219" y="397" width="96" height="96"/></clipPath></defs><g clip-path="url(#clip0)" transform="translate(-219 -397)"><path d="M287 427.2C284.6 427.2 282.6 425.2 282.7 422.7 282.7 420.3 284.7 418.3 287.1 418.3 289.5 418.3 291.5 420.3 291.5 422.7 291.5 423.9 291 425 290.2 425.8 289.3 426.7 288.2 427.2 287 427.2ZM282.7 413.3C280.5 414.1 278.8 415.8 277.7 417.8 276.3 420.5 276.1 423.6 277.2 426.4L282 436.8 285.2 443.4C285.5 444.1 286.2 444.5 287 444.5 287.8 444.5 288.5 444.1 288.8 443.4L292 436.8 296.8 426.5C297.3 425.3 297.5 424 297.5 422.7 297.5 415.7 290.3 410.4 282.7 413.3Z" fill="#FFFFFF"/><path d="M265 469.8 249 461.8 249 429.2 265 437.2 265 469.8ZM245 461.8 233 467.8 233 435.2 245 429.2 245 461.8ZM300.4 428.2 300.4 428.2 297.9 433.6 301 435.2 301 467.8 289 461.8 289 448.5 285 448.5 285 461.8 269 469.8 269 437.2 276.1 433.6 273.6 428.2 267 431.5 247 421.5 227 431.5 227 477.5 247 467.5 267 477.5 287 467.5 307 477.5 307 431.5 300.4 428.2Z" fill="#FFFFFF"/></g></svg>