<?xml version="1.0" encoding="UTF-8"?>
<svg width="25px" height="25px" viewBox="0 0 25 25" version="1.1" xmlns="http://www.w3.org/2000/svg" xmlns:xlink="http://www.w3.org/1999/xlink">
    <title>facebook</title>
    <g id="facebook" stroke="none" stroke-width="1" fill="none" fill-rule="evenodd">
        <path d="M12.5,0 C19.4035594,0 25,5.59644063 25,12.5 C25,19.4035594 19.4035594,25 12.5,25 C5.59644063,25 0,19.4035594 0,12.5 C0,5.59644063 5.59644063,0 12.5,0 Z M12.5,1.2 C6.25918233,1.2 1.2,6.25918233 1.2,12.5 C1.2,18.7408177 6.25918233,23.8 12.5,23.8 C18.7408177,23.8 23.8,18.7408177 23.8,12.5 C23.8,6.25918233 18.7408177,1.2 12.5,1.2 Z" id="Oval" fill="#FFFFFF" fill-rule="nonzero"></path>
        <path d="M13.1929825,20 L13.1929825,13.1818182 L15.5789474,13.1818182 L15.9298246,10.4545455 L13.1929825,10.4545455 L13.1929825,8.81818182 C13.1929825,8.06818182 13.4035088,7.52272727 14.5263158,7.52272727 L16,7.52272727 L16,5.13636364 C15.7192982,5.13636364 14.877193,5 13.8947368,5 C11.7894737,5 10.3859649,6.22727273 10.3859649,8.54545455 L10.3859649,10.4545455 L8,10.4545455 L8,13.1818182 L10.3859649,13.1818182 L10.3859649,20 C10.3859649,20 13.1929825,20 13.1929825,20 Z" id="f" fill="#FFFFFF" fill-rule="nonzero"></path>
    </g>
</svg>