<?xml version="1.0" encoding="UTF-8"?>
<svg width="199px" height="88px" viewBox="0 0 199 88" version="1.1" xmlns="http://www.w3.org/2000/svg" xmlns:xlink="http://www.w3.org/1999/xlink">
    <title>spur-logo-footer</title>
    <g id="Page-2" stroke="none" stroke-width="1" fill="none" fill-rule="evenodd">
        <g id="HomeNewSept2023.h" transform="translate(-114, -3260)">
            <g id="FOOTER" transform="translate(-1, 3213)">
                <g id="spur-logo-footer" transform="translate(115, 47)">
                    <path d="M1.0949675,87.8201678 C0.490242022,87.8201678 0,87.3297803 0,86.7248753 L0,64.4149346 C0,63.8100296 0.490359081,63.319525 1.09508456,63.319525 L13.8629159,63.319525 C14.4504338,63.319525 14.9334182,63.7834494 14.957064,64.3706733 L15.4679084,72.0301101 C15.4794972,72.2034084 15.6175095,72.3414617 15.7908735,72.3530539 L19.8467249,72.623657 L23.7553163,72.7934426 C23.9525603,72.8019904 24.1171449,72.6443825 24.1171449,72.4468458 L24.1171449,61.9185013 C24.1171449,61.7676849 24.0517091,61.6243625 23.9378109,61.5255356 L0.377280334,41.0772644 C0.137778142,40.8693064 0,40.5674393 0,40.2499989 L0,1.09545648 C0,0.490551486 0.490359081,4.68373973e-05 1.09508456,4.68373973e-05 L38.8999085,4.68373973e-05 C39.0553625,4.68373973e-05 39.2116359,0.0245193778 39.3543305,0.0864618364 C39.7819461,0.272406306 40.030696,0.686331809 40.0208129,1.12098286 C39.9419654,4.49105073 39.8648237,9.47677464 39.7842873,16.3632772 C39.7057409,23.1306958 39.6260239,23.6440336 39.5477116,27.0066075 C39.5338986,27.6013254 39.0477537,28.0770763 38.4530953,28.0770763 L25.5669175,28.0770763 C24.962192,28.0770763 24.47195,27.5866887 24.47195,26.9816666 L24.47195,15.9006408 C24.47195,15.7090759 24.316613,15.5536928 24.1251049,15.5536928 L15.8474128,15.5536928 C15.6605871,15.5536928 15.5072401,15.7019332 15.500919,15.8888144 L15.1936398,24.9023203 C15.1394416,27.2804892 15.0350252,30.6931791 14.9731011,33.4403096 C14.970877,33.5433519 15.0141887,33.6398369 15.0929692,33.7064631 C20.7126084,38.4613957 28.9258011,45.4710807 39.5202028,54.5550769 C39.7606414,54.7613957 39.9002925,55.0616234 39.9025166,55.3785955 L40.0208129,70.9884463 L40.0208129,80.1191629 C40.0208129,80.7241849 32.2665406,87.8201678 31.6618151,87.8201678 L1.0949675,87.8201678 Z" id="Fill-1" fill="#C52026"></path>
                    <path d="M64.3584296,16.1620872 C64.2114038,16.185623 64.0971544,16.2993208 64.0731574,16.4462731 C63.9462657,17.22635 63.8839905,19.2174078 63.8839905,24.2735049 C63.8839905,29.0382733 63.8938234,31.4680804 64.0119357,32.7055245 C64.0298457,32.892757 64.229782,33.0034103 64.3977613,32.919103 C65.3908877,32.4201677 67.0499613,31.5285007 69.8206247,29.9448112 L75.6372737,26.6654908 C75.7411048,26.606944 75.8075942,26.5002718 75.8133301,26.3811878 C75.8777124,25.0364861 75.9416265,23.2417941 76.0078817,20.930954 C76.0625481,19.0256086 76.1158099,17.4837215 76.1691886,16.2692277 C76.177851,16.0719252 76.0201729,15.9084627 75.8228118,15.9084627 L70.600353,15.9084627 C66.7065109,15.9084627 65.054695,16.0504971 64.3584296,16.1620872 L64.3584296,16.1620872 Z M49.8033452,77.2817299 C49.1932351,77.2817299 48.6985448,76.7870099 48.6985448,76.1766015 L48.6985448,1.10526891 C48.6985448,0.494860527 49.1933521,2.34186991e-05 49.8035794,2.34186991e-05 L91.0426727,2.34186991e-05 C91.6527829,2.34186991e-05 92.1474732,0.494860527 92.1474732,1.10515182 L92.1474732,34.3252788 C92.1474732,34.7266753 91.927871,35.0961053 91.57529,35.2877873 C81.8993313,40.546222 72.7628962,45.6537231 64.4050189,50.47657 C64.299549,50.5373415 64.2343473,50.6486974 64.2321232,50.7703576 C64.2321232,50.7703576 63.7892899,73.8244274 63.7743064,76.1932287 C63.7706776,76.7955577 63.2816062,77.2817299 62.679456,77.2817299 L49.8033452,77.2817299 Z" id="Fill-3" fill="#C52026"></path>
                    <path d="M169.747506,13.842629 C169.64625,15.7169446 169.594627,25.6246935 169.682538,27.9155107 C169.689796,28.1059047 169.893244,28.2229982 170.061575,28.13389 C171.654861,27.2906998 176.994496,24.3091481 178.036202,23.7269593 C178.145886,23.6656023 178.213311,23.5501481 178.213311,23.4243897 L178.213311,13.6120719 C178.213311,13.4172283 178.053409,13.2605572 177.858741,13.2652506 C176.465507,13.299081 171.379656,13.4269471 170.060638,13.5243689 C169.890669,13.5368979 169.756754,13.6724922 169.747506,13.842629 M198.999951,54.2405872 C198.996857,54.6695007 198.734646,55.0590707 198.338753,55.2238213 C197.643307,55.5131593 195.555916,55.9001533 185.248776,56.3195822 C185.234378,56.3202848 185.219277,56.3206361 185.204879,56.3206361 C185.067101,56.3206361 184.930493,56.2941729 184.802548,56.2432373 C184.305049,56.0440612 184.077837,55.9531967 180.192424,48.3295905 C178.746046,45.4917126 176.781566,41.9750437 174.323098,37.8200981 C174.226408,37.6566356 174.015468,37.6004307 173.850649,37.6945739 C172.599057,38.4094296 171.358937,39.1201872 170.13977,39.8234507 C169.984082,39.9132614 169.886455,40.0760214 169.880485,40.2557599 C169.815634,42.2154366 169.442451,53.5713979 169.428755,55.7341147 C169.425126,56.3364437 168.935938,56.8226159 168.333788,56.8226159 L155.447844,56.8226159 C154.843118,56.8226159 154.352876,56.3323454 154.352876,55.7274404 L154.352876,1.0954799 C154.352876,0.490457812 154.843118,7.02560963e-05 155.447961,7.02560963e-05 L191.415431,7.02560963e-05 C192.89201,7.02560963e-05 194.066226,0.474298909 194.066226,3.87750424 L194.066343,26.2673026 C194.066343,26.3530151 194.019754,26.431819 193.944602,26.4728017 C193.778847,26.5631979 193.611804,26.6539453 193.447336,26.7438731 C191.207652,27.969842 189.003435,29.1852725 186.83024,30.39075 C186.666943,30.4812633 186.606658,30.6853573 186.694686,30.8501078 C187.156248,31.7135552 187.642627,32.6219666 188.157803,33.58307 C194.550615,45.5112672 198.062846,51.9846639 198.595931,52.8235217 C198.613607,52.8545515 198.631283,52.8855813 198.648959,52.9167282 C198.88811,53.3930645 199.00271,53.8259591 198.999951,54.2405872" id="Fill-5" fill="#C52026"></path>
                    <path d="M124.115924,52.3706509 C126.445393,51.0773533 128.347129,49.7859291 130.572533,48.5212023 C130.70914,48.4435693 130.795179,48.299193 130.795647,48.1421707 C130.823858,39.606172 131.237309,9.63468693 131.237192,1.08639344 C131.237192,0.485352535 131.722986,0 132.323849,0 C135.067589,0 142.030243,0 144.77211,0 C145.372036,0 145.857596,0.486055096 145.857596,1.08615926 C145.857596,10.3864272 145.488626,47.8400694 145.488509,57.1426792 C145.488509,57.5559022 145.256265,57.9317723 144.888232,58.1193561 C142.552091,59.3099627 128.127176,67.3288765 128.127176,67.3288765 C127.963059,67.4214975 127.532166,67.5343756 127.25462,67.5343756 L102.783138,67.5343756 C102.529706,67.5343756 102.284585,67.4476093 102.089214,67.2860203 C101.120084,66.4846324 99.9626076,65.3141658 99.9626076,64.2968576 L99.9626076,1.09599511 C99.9626076,0.490973023 100.45285,0 101.057692,0 L114.511956,0 C115.116682,0 115.606924,0.490973023 115.606924,1.09587802 L115.606924,52.1066051 C115.606924,52.2981701 115.762143,52.453436 115.953652,52.453436 L123.796353,52.453436 C123.907676,52.453436 124.018531,52.4247481 124.115924,52.3706509" id="Fill-7" fill="#C52026"></path>
                    <path d="M132.321648,81.3219472 C132.321648,81.5917306 132.271547,81.7767384 132.171813,81.8763849 C132.071845,81.9763828 131.872142,82.0262646 131.572589,82.0262646 L129.128871,82.0262646 L129.128871,79.3894362 L131.66249,79.3894362 C131.902109,79.3894362 132.071845,79.4444701 132.171813,79.5543038 C132.271547,79.6643717 132.321648,79.8390752 132.321648,80.0787656 L132.321648,81.3219472 Z M134.642572,83.5382929 C134.377785,83.2138268 133.738293,82.9804595 133.119169,82.9703895 L133.119169,82.922264 C133.678476,82.9125453 134.290459,82.6691079 134.560162,82.3243846 C134.829866,81.9797785 134.964717,81.5527385 134.964717,81.0431476 L134.964717,79.7544166 C134.964717,79.0152054 134.732356,78.4183798 134.267984,77.9635887 C133.803612,77.5091489 133.047061,77.2817533 131.998449,77.2817533 L126.836392,77.2817533 C126.647928,77.2817533 126.495049,77.4345603 126.495049,77.6231979 L126.495049,87.4787232 C126.495049,87.6673608 126.647928,87.8201678 126.836392,87.8201678 L128.787645,87.8201678 C128.976109,87.8201678 129.128871,87.6673608 129.128871,87.4787232 L129.128871,83.8813768 L131.566385,83.8813768 C131.866055,83.8813768 132.065758,83.9389868 132.165726,84.0537385 C132.265343,84.1687243 132.315444,84.3410859 132.315444,84.5707062 L132.315444,87.4794257 C132.315444,87.667595 132.467971,87.8201678 132.656085,87.8201678 L134.698877,87.8201678 C134.88699,87.8201678 135.039518,87.667595 135.039518,87.4794257 L135.039518,84.6996262 C135.039518,84.2501043 134.907007,83.8631103 134.642572,83.5382929 L134.642572,83.5382929 Z" id="Fill-9" fill="#000F55"></path>
                    <path d="M90.9175955,77.2817533 L82.7425639,77.2817533 C82.5539823,77.2817533 82.4011036,77.4346774 82.4011036,77.6231979 L82.4011036,79.0479916 C82.4011036,79.2365121 82.5539823,79.3894362 82.7425639,79.3894362 L85.5056185,79.3894362 L85.5056185,87.4787232 C85.5056185,87.6672437 85.6584973,87.8201678 85.8469618,87.8201678 L87.798097,87.8201678 C87.9865616,87.8201678 88.1394403,87.6672437 88.1394403,87.4787232 L88.1394403,79.3894362 L90.9175955,79.3894362 C91.1060601,79.3894362 91.2589388,79.2365121 91.2589388,79.0479916 L91.2589388,77.6231979 C91.2589388,77.4346774 91.1060601,77.2817533 90.9175955,77.2817533" id="Fill-11" fill="#000F55"></path>
                    <path d="M99.8128075,79.3894362 C100.001272,79.3894362 100.154151,79.2365121 100.154151,79.0479916 L100.154151,77.6231979 C100.154151,77.4345603 100.001272,77.2817533 99.8128075,77.2817533 L92.9025957,77.2817533 C92.7140141,77.2817533 92.5612524,77.4345603 92.5612524,77.6231979 L92.5612524,87.4787232 C92.5612524,87.6673608 92.7140141,87.8201678 92.9025957,87.8201678 L99.8128075,87.8201678 C100.001272,87.8201678 100.154151,87.6673608 100.154151,87.4787232 L100.154151,86.0539295 C100.154151,85.865409 100.001272,85.7124849 99.8128075,85.7124849 L95.1950742,85.7124849 L95.1950742,83.4298643 L99.1543521,83.4298643 C99.3428167,83.4298643 99.4956954,83.2770573 99.4956954,83.0884197 L99.4956954,81.9270864 C99.4956954,81.7384488 99.3428167,81.5856418 99.1543521,81.5856418 L95.1950742,81.5856418 L95.1950742,79.3894362 L99.8128075,79.3894362 Z" id="Fill-13" fill="#000F55"></path>
                    <path d="M188.438884,79.3894362 C188.627349,79.3894362 188.780228,79.2365121 188.780228,79.0479916 L188.780228,77.6231979 C188.780228,77.4345603 188.627349,77.2817533 188.438884,77.2817533 L181.528673,77.2817533 C181.340091,77.2817533 181.187329,77.4345603 181.187329,77.6231979 L181.187329,87.4787232 C181.187329,87.6673608 181.340091,87.8201678 181.528673,87.8201678 L188.438884,87.8201678 C188.627349,87.8201678 188.780228,87.6673608 188.780228,87.4787232 L188.780228,86.0539295 C188.780228,85.865409 188.627349,85.7124849 188.438884,85.7124849 L183.821151,85.7124849 L183.821151,83.4298643 L187.780429,83.4298643 C187.968894,83.4298643 188.121772,83.2770573 188.121772,83.0884197 L188.121772,81.9270864 C188.121772,81.7384488 187.968894,81.5856418 187.780429,81.5856418 L183.821151,81.5856418 L183.821151,79.3894362 L188.438884,79.3894362 Z" id="Fill-15" fill="#000F55"></path>
                    <path d="M105.089863,83.6409019 L106.254129,79.2854923 L106.478999,79.2854923 L107.643265,83.6409019 L105.089863,83.6409019 Z M111.385165,87.3763015 L108.257589,77.5194882 C108.212639,77.3779222 108.081299,77.2817884 107.932868,77.2817884 L104.800376,77.2817884 C104.651829,77.2817884 104.520489,77.3779222 104.475538,77.5194882 L101.347963,87.3763015 C101.278313,87.596086 101.442195,87.8202029 101.672684,87.8202029 L103.645709,87.8202029 C103.838505,87.8202029 104.007303,87.6905804 104.05717,87.5041676 L104.596811,85.4851245 L108.136316,85.4851245 L108.675957,87.5042847 C108.725824,87.6905804 108.894623,87.8202029 109.087419,87.8202029 L111.060444,87.8202029 C111.290933,87.8202029 111.454815,87.596086 111.385165,87.3763015 L111.385165,87.3763015 Z" id="Fill-17" fill="#000F55"></path>
                    <path d="M140.153253,83.6409019 L141.317519,79.2854923 L141.542389,79.2854923 L142.706655,83.6409019 L140.153253,83.6409019 Z M146.448555,87.3763015 L143.320979,77.5194882 C143.276029,77.3779222 143.144689,77.2817884 142.996258,77.2817884 L139.863649,77.2817884 C139.715219,77.2817884 139.583879,77.3779222 139.539045,77.5194882 L136.411353,87.3763015 C136.341703,87.596086 136.505702,87.8202029 136.736074,87.8202029 L138.709099,87.8202029 C138.901895,87.8202029 139.070693,87.6905804 139.12056,87.5041676 L139.660318,85.4851245 L143.199706,85.4851245 L143.739347,87.5042847 C143.789214,87.6905804 143.958013,87.8202029 144.150809,87.8202029 L146.123834,87.8202029 C146.354323,87.8202029 146.518322,87.596086 146.448555,87.3763015 L146.448555,87.3763015 Z" id="Fill-19" fill="#000F55"></path>
                    <path d="M121.806132,87.292685 L118.289102,81.9206697 L121.407898,77.8291888 C121.578921,77.6048377 121.419019,77.2817767 121.137024,77.2817767 L119.140939,77.2817767 C119.006906,77.2817767 118.880717,77.3448901 118.800298,77.4521477 L116.498221,80.5224563 L115.356312,81.0328668 L115.356312,77.6232213 C115.356312,77.4345837 115.203434,77.2817767 115.014969,77.2817767 L113.063717,77.2817767 C112.875252,77.2817767 112.722491,77.4345837 112.722491,77.6232213 L112.722491,87.4787466 C112.722491,87.6673842 112.875252,87.8201912 113.063717,87.8201912 L115.014969,87.8201912 C115.203434,87.8201912 115.356312,87.6673842 115.356312,87.4787466 L115.356312,83.84475 L116.269137,83.4367963 L118.931169,87.6228887 C119.009365,87.7457198 119.144919,87.8201912 119.29054,87.8201912 L121.521094,87.8201912 C121.791968,87.8201912 121.954563,87.519378 121.806132,87.292685" id="Fill-21" fill="#000F55"></path>
                    <path d="M156.835365,77.2817533 L154.895935,77.2817533 C154.702788,77.2817533 154.548271,77.4421714 154.555528,77.6352586 L154.835065,85.09388 L154.615228,85.09388 L151.927326,77.5086805 C151.879097,77.3726178 151.75045,77.2817533 151.606233,77.2817533 L148.246413,77.2817533 C148.0583,77.2817533 147.905772,77.4343261 147.905772,77.6224954 L147.905772,87.4794257 C147.905772,87.667595 148.0583,87.8201678 148.246413,87.8201678 L150.185843,87.8201678 C150.37899,87.8201678 150.533507,87.6597497 150.526249,87.4666626 L150.246713,80.0080411 L150.437402,80.0080411 L153.125305,87.5932406 C153.173533,87.7293033 153.30218,87.8201678 153.446514,87.8201678 L156.835365,87.8201678 C157.023478,87.8201678 157.176006,87.667595 157.176006,87.4794257 L157.176006,77.6224954 C157.176006,77.4343261 157.023478,77.2817533 156.835365,77.2817533" id="Fill-23" fill="#000F55"></path>
                    <path d="M178.935505,77.2817533 L176.98437,77.2817533 C176.795789,77.2817533 176.643027,77.4345603 176.643027,77.6231979 L176.643027,81.6288493 L172.397657,81.6288493 L172.397657,77.6231979 C172.397657,77.4345603 172.244779,77.2817533 172.056314,77.2817533 L170.105179,77.2817533 C169.916597,77.2817533 169.763836,77.4345603 169.763836,77.6231979 L169.763836,87.4787232 C169.763836,87.6673608 169.916597,87.8201678 170.105179,87.8201678 L172.056314,87.8201678 C172.244779,87.8201678 172.397657,87.6673608 172.397657,87.4787232 L172.397657,83.4730718 L176.643027,83.4730718 L176.643027,87.4787232 C176.643027,87.6673608 176.795789,87.8201678 176.98437,87.8201678 L178.935505,87.8201678 C179.12397,87.8201678 179.276849,87.6673608 179.276849,87.4787232 L179.276849,77.6231979 C179.276849,77.4345603 179.12397,77.2817533 178.935505,77.2817533" id="Fill-25" fill="#000F55"></path>
                    <path d="M161.351643,83.7826202 C161.351643,85.1467594 162.107726,85.7897198 163.377462,85.7897198 L163.725477,85.7897198 C164.955765,85.7897198 165.625458,85.2430103 165.694757,84.1627057 C165.695342,84.1532211 165.69862,84.0684454 165.702248,83.9697356 C165.709038,83.7866014 165.859458,83.6414054 166.042655,83.6414054 L167.796898,83.6414054 C167.98583,83.6414054 168.138709,83.7952663 168.137661,83.9842552 C168.13707,84.0761736 168.136485,84.1533382 168.136134,84.1636424 C168.053842,86.6144093 166.476241,87.9849886 163.741163,87.9849886 L163.327361,87.9849886 C160.552717,87.9849886 158.932273,86.5110157 158.932273,83.7826202 L158.932273,81.367801 C158.932273,78.6394055 160.552717,77.1653155 163.327361,77.1653155 L163.741163,77.1653155 C166.476241,77.1653155 168.053842,78.536012 168.136134,80.9867788 C168.136485,80.997083 168.13707,81.0742477 168.137661,81.166166 C168.138709,81.3551549 167.98583,81.5088987 167.796898,81.5088987 L166.042655,81.5088987 C165.859458,81.5088987 165.709038,81.3638199 165.702248,81.1806856 C165.69862,81.0819758 165.695342,80.9972001 165.694757,80.9877156 C165.625458,79.907411 164.955765,79.3607015 163.725477,79.3607015 L163.377462,79.3607015 C162.107726,79.3607015 161.351643,80.0036618 161.351643,81.367801 L161.351643,83.7826202 Z" id="Fill-27" fill="#000F55"></path>
                    <path d="M77.0934728,77.1803269 C80.041012,77.1803269 81.2789082,78.2936519 81.2789082,80.347823 L81.2789082,80.6028527 C81.2789082,80.791139 81.1263807,80.9437118 80.9382673,80.9437118 L79.0760967,80.9437118 C78.8879833,80.9437118 78.7353387,80.791139 78.7353387,80.6028527 L78.7353387,80.347823 C78.7353387,79.595146 78.4266548,79.1596753 77.1703804,79.1596753 L76.9287711,79.1596753 C75.639252,79.1596753 75.1776894,79.563765 75.1776894,80.1282727 L75.1776894,80.2850609 C75.1776894,80.9750929 75.7216614,81.1945261 77.8379664,81.6963888 C80.2991265,82.2922776 81.4904334,83.1075996 81.4904334,84.8638849 L81.4904334,85.0206731 C81.4904334,86.7141963 80.0796414,88 77.1482563,88 L76.9987723,88 C74.082956,88 72.6251064,86.6985058 72.6251064,84.6286441 L72.6251064,84.420569 C72.6251064,84.2323997 72.777751,84.0798269 72.9658644,84.0798269 L74.8661961,84.0798269 C75.0543095,84.0798269 75.206837,84.2323997 75.206837,84.420569 L75.206837,84.6286441 C75.206837,85.647943 75.4335798,86.0206516 77.030144,86.0206516 L77.1482563,86.0206516 C78.6221429,86.0206516 78.8930169,85.6792069 78.8930169,85.0363637 L78.8930169,84.9109565 C78.8930169,84.2679961 78.638297,84.0162451 76.1920034,83.452557 C73.923639,82.9299688 72.6617458,82.1511799 72.6617458,80.4105851 L72.6617458,80.1753443 C72.6617458,78.2779613 73.8884044,77.1803269 76.9130853,77.1803269 L77.0934728,77.1803269 Z" id="Fill-29" fill="#000F55"></path>
                    <path d="M194.602905,77.1803269 C197.550444,77.1803269 198.788341,78.2936519 198.788341,80.347823 L198.788341,80.6028527 C198.788341,80.791139 198.635813,80.9437118 198.4477,80.9437118 L196.585529,80.9437118 C196.397299,80.9437118 196.244771,80.791139 196.244771,80.6028527 L196.244771,80.347823 C196.244771,79.595146 195.936087,79.1596753 194.679813,79.1596753 L194.438204,79.1596753 C193.148684,79.1596753 192.687122,79.563765 192.687122,80.1282727 L192.687122,80.2850609 C192.687122,80.9750929 193.231094,81.1945261 195.347399,81.6963888 C197.808559,82.2922776 198.999866,83.1075996 198.999866,84.8638849 L198.999866,85.0206731 C198.999866,86.7141963 197.589074,88 194.657689,88 L194.508205,88 C191.592388,88 190.134539,86.6985058 190.134539,84.6286441 L190.134539,84.420569 C190.134539,84.2323997 190.287066,84.0798269 190.475297,84.0798269 L192.375629,84.0798269 C192.563742,84.0798269 192.716269,84.2323997 192.716269,84.420569 L192.716269,84.6286441 C192.716269,85.647943 192.943012,86.0206516 194.539576,86.0206516 L194.657689,86.0206516 C196.131575,86.0206516 196.402449,85.6792069 196.402449,85.0363637 L196.402449,84.9109565 C196.402449,84.2679961 196.14773,84.0162451 193.701436,83.452557 C191.433072,82.9299688 190.171178,82.1511799 190.171178,80.4105851 L190.171178,80.1753443 C190.171178,78.2779613 191.397837,77.1803269 194.422518,77.1803269 L194.602905,77.1803269 Z" id="Fill-31" fill="#000F55"></path>
                </g>
            </g>
        </g>
    </g>
</svg>