<?xml version="1.0" encoding="UTF-8"?>
<svg width="25px" height="25px" viewBox="0 0 25 25" version="1.1" xmlns="http://www.w3.org/2000/svg" xmlns:xlink="http://www.w3.org/1999/xlink">
    <title>youtube</title>
    <g id="youtube" stroke="none" stroke-width="1" fill="none" fill-rule="evenodd">
        <path d="M12.5,0 C19.4035594,0 25,5.59644063 25,12.5 C25,19.4035594 19.4035594,25 12.5,25 C5.59644063,25 0,19.4035594 0,12.5 C0,5.59644063 5.59644063,0 12.5,0 Z M12.5,1.2 C6.25918233,1.2 1.2,6.25918233 1.2,12.5 C1.2,18.7408177 6.25918233,23.8 12.5,23.8 C18.7408177,23.8 23.8,18.7408177 23.8,12.5 C23.8,6.25918233 18.7408177,1.2 12.5,1.2 Z" id="Oval" fill="#FFFFFF" fill-rule="nonzero"></path>
        <g transform="translate(5.000000, 7.000000)" fill="#FFFFFF" fill-rule="nonzero" id="youtube-[#168]">
            <path d="M5.625,8 L5.625,3 C7.36724097,3.83525642 8.716607,4.64208082 10.3125,5.51199741 C8.99623662,6.25572962 7.36724097,7.09010394 5.625,8 M14.3182486,0.929412824 C14.0605073,0.573672774 13.6212256,0.297069878 13.1535548,0.205392722 C11.7789323,-0.0680751739 3.20323055,-0.0688530311 1.82935579,0.205392722 C1.45432279,0.279045589 1.12037929,0.456915614 0.833501287,0.73351851 C-0.375269968,1.90886868 0.00349803335,8.21190099 0.294858785,9.23289757 C0.417378785,9.67483048 0.575759286,9.9937441 0.775229286,10.2029563 C1.03222354,10.4795513 1.38409729,10.6699613 1.78826629,10.7553685 C2.9200883,11.0006292 8.75102782,11.1377521 13.1296486,10.7921949 C13.5330706,10.7185421 13.8901733,10.5218699 14.1718216,10.2335127 C15.2894491,9.06286111 15.2132476,2.40565232 14.3182486,0.929412824"></path>
        </g>
    </g>
</svg>