<svg width="133" height="94" viewBox="0 0 133 94" fill="none" xmlns="http://www.w3.org/2000/svg">
<path d="M129.444 14.5706C128.692 11.7519 127.214 9.1807 125.16 7.11426C123.106 5.04781 120.548 3.55853 117.74 2.79529C107.29 -4.24996e-05 66.1154 1.20402e-07 66.1154 1.20402e-07C66.1154 1.20402e-07 24.7672 -4.26499e-05 14.4563 2.79529C11.6485 3.55853 9.08961 5.04781 7.03563 7.11426C4.98165 9.1807 3.50448 11.7519 2.75194 14.5706C2.97382e-05 25.0531 8.82177e-08 46.7169 8.82177e-08 46.7169C8.82177e-08 46.7169 2.98201e-05 68.4505 2.75194 78.8631C3.50449 81.6819 4.98165 84.253 7.03563 86.3195C9.08961 88.3859 11.6485 89.8753 14.4563 90.6386C24.9066 93.4339 66.1154 93.4338 66.1154 93.4338C66.1154 93.4338 107.429 93.4339 117.74 90.6386C120.548 89.8753 123.106 88.3859 125.16 86.3195C127.214 84.253 128.692 81.6819 129.444 78.8631C132.196 68.3807 132.196 46.7169 132.196 46.7169C132.196 46.7169 132.196 24.9832 129.444 14.5706Z" fill="#EF4036"/>
<path d="M52.5654 66.4239L52.5654 27.0098L87.121 46.7169L52.5654 66.4239Z" fill="white"/>
</svg>
