<svg width="18" height="20" viewBox="0 0 18 20" fill="none" xmlns="http://www.w3.org/2000/svg">
<path fill-rule="evenodd" clip-rule="evenodd" d="M9 2.14288C7.30924 2.14288 5.68774 2.82018 4.49219 4.02578C3.29665 5.23138 2.625 6.86652 2.625 8.5715C2.625 10.7969 4.20772 13.1173 6.04134 15.0104C6.92991 15.9278 7.8224 16.6889 8.49433 17.2213C8.68257 17.3704 8.85282 17.5011 9 17.6117C9.14718 17.5011 9.31743 17.3704 9.50567 17.2213C10.1776 16.6889 11.0701 15.9278 11.9587 15.0104C13.7923 13.1173 15.375 10.7969 15.375 8.5715C15.375 6.86652 14.7034 5.23138 13.5078 4.02578C12.3123 2.82018 10.6908 2.14288 9 2.14288ZM9 18.9287C8.41063 19.8202 8.41039 19.8201 8.41012 19.8199L8.40756 19.8182L8.40178 19.8142L8.3823 19.801L8.31277 19.753C8.2533 19.7115 8.16812 19.6515 8.06091 19.5739C7.8466 19.4188 7.54362 19.1932 7.18145 18.9063C6.45885 18.3337 5.49196 17.51 4.52116 16.5077C2.63603 14.5615 0.5 11.7033 0.5 8.5715C0.5 6.2982 1.39553 4.118 2.98959 2.51054C4.58365 0.903067 6.74566 0 9 0C11.2543 0 13.4163 0.903067 15.0104 2.51054C16.6045 4.118 17.5 6.2982 17.5 8.5715C17.5 11.7033 15.364 14.5615 13.4788 16.5077C12.508 17.51 11.5411 18.3337 10.8185 18.9063C10.4564 19.1932 10.1534 19.4188 9.93909 19.5739C9.83188 19.6515 9.7467 19.7115 9.68723 19.753L9.6177 19.801L9.59822 19.8142L9.59244 19.8182L9.59056 19.8194C9.59029 19.8196 9.58937 19.8202 9 18.9287ZM9 18.9287L9.58937 19.8202C9.23248 20.0602 8.76701 20.0598 8.41012 19.8199L9 18.9287Z" fill="#292929"/>
<path fill-rule="evenodd" clip-rule="evenodd" d="M6.16602 8.57103C6.16602 6.99306 7.43454 5.71387 8.99935 5.71387C10.5642 5.71387 11.8327 6.99306 11.8327 8.57103C11.8327 10.149 10.5642 11.4282 8.99935 11.4282C7.43454 11.4282 6.16602 10.149 6.16602 8.57103Z" fill="#292929"/>
</svg>
