<svg width="80" height="80" xmlns="http://www.w3.org/2000/svg" xmlns:xlink="http://www.w3.org/1999/xlink" overflow="hidden"><defs><clipPath id="clip0"><rect x="592" y="312" width="80" height="80"/></clipPath></defs><g clip-path="url(#clip0)" transform="translate(-592 -312)"><path d="M661.167 352.833C660.75 352.833 660.417 352.583 660.167 352.333 659.75 351.917 659.5 351.167 659.5 350.417 659.5 349.333 660.25 348.5 660.917 348L661 347.917C662.583 348.75 662.833 349.583 662.833 350.333 662.833 351.667 662.083 352.833 661.167 352.833ZM638.5 336.417C638.25 337 637.583 337.417 637 337.417 636.75 337.417 636.5 337.333 636.333 337.25 633.667 336 630.75 335.333 628 335.333 626.417 335.333 624.833 335.583 623.25 336 622.333 336.25 621.417 335.75 621.167 334.833 620.917 333.917 621.417 333 622.333 332.75 624.167 332.25 626.083 332 627.917 332 631.083 332 634.5 332.75 637.583 334.167 638.5 334.583 638.917 335.583 638.5 336.417ZM667.25 342.833C665.167 342.5 662.583 343.083 660.5 344.25 658.583 343.833 655.667 343.833 653 344.75 649.083 335.417 638.167 328.667 627.833 328.667 624.25 328.667 620.667 329.5 617.417 331L607.167 326.167C606.5 325.833 605.75 326.5 606 327.167L609.333 336.583C607.333 338.667 605.667 341.083 604.5 343.75 604.333 344.25 603.917 344.583 603.333 344.75L600.333 345.5C598.833 345.833 597.833 347.167 597.833 348.75L597.833 355.25C597.833 356.75 598.833 358.083 600.333 358.5L603.417 359.25C603.917 359.417 604.333 359.75 604.583 360.25 606 363.5 608.167 366.417 610.833 368.833 611.083 369.083 611.333 369.417 611.417 369.833L612.667 377.417C612.833 378.25 613.5 378.833 614.333 378.833L619.833 378.833C620.667 378.833 621.333 378.25 621.5 377.417L621.917 374.75C623.833 375.25 625.833 375.5 627.917 375.5 630.167 375.5 632.5 375.167 634.667 374.583L635.167 377.417C635.333 378.25 636 378.833 636.833 378.833L642.333 378.833C643.167 378.833 643.833 378.25 644 377.417L645.25 369.833C645.333 369.417 645.5 369.083 645.833 368.833 650.917 364.417 654.5 358.583 654.5 352 654.5 350.583 654.333 349.25 654 347.917 655 347.583 656.083 347.333 657.083 347.333 656.5 348.25 656.167 349.25 656.167 350.333 656.083 352 656.75 353.583 657.833 354.75 658.75 355.667 659.917 356.25 661.167 356.25 663.917 356.25 666.167 353.667 666.167 350.417 666.167 348.833 665.583 347.417 664.417 346.333 665.25 346.167 666 346.083 666.75 346.167 667.667 346.333 668.5 345.667 668.667 344.75 668.75 343.833 668.167 343 667.25 342.833Z" fill="#FFFFFF"/></g></svg>