<svg width="327" height="339" xmlns="http://www.w3.org/2000/svg" xmlns:xlink="http://www.w3.org/1999/xlink" overflow="hidden"><defs><clipPath id="clip0"><rect x="1138" y="688" width="327" height="339"/></clipPath></defs><g clip-path="url(#clip0)" transform="translate(-1138 -688)"><path d="M1321 717.833C1321 705.223 1331.22 695 1343.83 695L1435.17 695C1447.78 695 1458 705.223 1458 717.833L1458 809.163C1458 821.773 1447.78 831.996 1435.17 831.996L1343.83 831.996C1331.22 831.996 1321 821.773 1321 809.163Z" stroke="#FFFFFF" stroke-width="13.75" stroke-miterlimit="8" fill="none" fill-rule="evenodd"/><path d="M1145 717.833C1145 705.223 1155.22 695 1167.83 695L1259.17 695C1271.78 695 1282 705.223 1282 717.833L1282 809.163C1282 821.773 1271.78 831.996 1259.17 831.996L1167.83 831.996C1155.22 831.996 1145 821.773 1145 809.163Z" stroke="#FFFFFF" stroke-width="13.75" stroke-miterlimit="8" fill="none" fill-rule="evenodd"/><path d="M1145 905.833C1145 893.223 1155.22 883 1167.83 883L1259.17 883C1271.78 883 1282 893.223 1282 905.833L1282 997.163C1282 1009.77 1271.78 1020 1259.17 1020L1167.83 1020C1155.22 1020 1145 1009.77 1145 997.163Z" stroke="#FFFFFF" stroke-width="13.75" stroke-miterlimit="8" fill="none" fill-rule="evenodd"/><path d="M1233 811.834C1233 799.223 1243.22 789 1255.83 789L1347.17 789C1359.78 789 1370 799.223 1370 811.834L1370 903.166C1370 915.777 1359.78 926 1347.17 926L1255.83 926C1243.22 926 1233 915.777 1233 903.166Z" stroke="#FFFFFF" stroke-width="13.75" stroke-miterlimit="8" fill="none" fill-rule="evenodd"/></g></svg>