<svg width="707" height="698" xmlns="http://www.w3.org/2000/svg" xmlns:xlink="http://www.w3.org/1999/xlink" overflow="hidden"><defs><clipPath id="clip0"><rect x="1695" y="540" width="707" height="698"/></clipPath><clipPath id="clip1"><rect x="1870" y="540" width="330" height="331"/></clipPath><clipPath id="clip2"><rect x="1870" y="540" width="330" height="331"/></clipPath><clipPath id="clip3"><rect x="1870" y="540" width="330" height="331"/></clipPath><clipPath id="clip4"><rect x="1695" y="907" width="331" height="331"/></clipPath><clipPath id="clip5"><rect x="1695" y="907" width="331" height="331"/></clipPath><clipPath id="clip6"><rect x="1695" y="907" width="331" height="331"/></clipPath><clipPath id="clip7"><rect x="2072" y="907" width="331" height="331"/></clipPath><clipPath id="clip8"><rect x="2072" y="907" width="331" height="331"/></clipPath><clipPath id="clip9"><rect x="2072" y="907" width="331" height="331"/></clipPath></defs><g clip-path="url(#clip0)" transform="translate(-1695 -540)"><g clip-path="url(#clip1)"><g clip-path="url(#clip2)"><g clip-path="url(#clip3)"><path d="M2183.5 642.094 2133.31 592.938C2131.94 591.563 2130.22 590.531 2128.5 589.844L2081.75 572.313C2079.34 571.281 2076.25 571.969 2074.53 574.031 2064.56 584.344 2050.47 590.875 2035 590.875 2019.53 590.875 2005.44 584.344 1995.47 574.031 1993.75 571.969 1990.66 571.625 1988.25 572.313L1941.5 589.844C1939.78 590.531 1938.06 591.563 1936.69 592.938L1886.5 642.094C1883.75 645.188 1884.09 650 1887.19 652.406L1933.25 687.125C1936 689.188 1939.78 689.188 1942.19 686.781L1959.38 670.625 1959.38 838.031 2110.62 838.031 2110.62 670.969 2127.81 687.125C2130.22 689.531 2134.34 689.531 2136.75 687.469L2182.81 652.406C2185.91 650 2186.25 645.188 2183.5 642.094Z" fill="#FFFFFF"/></g></g></g><g clip-path="url(#clip4)"><g clip-path="url(#clip5)"><g clip-path="url(#clip6)"><path d="M1975.16 1175.44 1893.34 1032.44C1891.97 1029.69 1890.94 1026.94 1890.94 1023.84 1890.94 1022.47 1891.28 1020.75 1891.62 1019.37L1902.28 979.844C1902.62 978.125 1904.34 977.094 1906.06 977.437L1934.59 980.187C1935.62 980.187 1936.31 979.844 1936.31 978.812L1942.5 950.969C1942.84 950.281 1942.16 949.25 1941.47 948.906L1915 939.281C1908.12 936.875 1900.91 935.5 1893.69 935.5L1890.94 935.5C1888.88 935.5 1887.5 936.875 1887.5 938.937L1887.5 942.375C1887.5 957.5 1875.12 969.875 1860 969.875 1844.88 969.875 1832.5 957.5 1832.5 942.375L1832.5 938.937C1832.5 936.875 1831.12 935.5 1829.06 935.5L1826.31 935.5C1819.09 935.5 1811.88 936.875 1805 939.281L1778.88 948.906C1778.19 949.25 1777.5 949.937 1777.84 950.969L1784.03 978.812C1784.38 979.5 1785.06 980.187 1785.75 980.187L1814.28 977.437C1816 977.437 1817.38 978.469 1818.06 979.844L1828.72 1019.37C1829.06 1020.75 1829.41 1022.47 1829.41 1023.84 1829.41 1026.94 1828.72 1029.69 1827 1032.44L1744.84 1175.44C1743.12 1178.53 1743.81 1182.31 1746.91 1184.37 1768.22 1199.84 1810.84 1210.5 1860 1210.5 1909.16 1210.5 1951.78 1199.84 1973.09 1184.37 1975.84 1182.31 1976.88 1178.53 1975.16 1175.44Z" fill="#FFFFFF"/></g></g></g><g clip-path="url(#clip7)"><g clip-path="url(#clip8)"><g clip-path="url(#clip9)"><path d="M2319.5 935.5 2319.5 928.625C2319.5 924.844 2316.41 921.75 2312.63 921.75L2237 921.75 2161.38 921.75C2157.59 921.75 2154.5 924.844 2154.5 928.625L2154.5 935.5 2185.44 935.5 2185.44 949.25 2154.5 949.25 2154.5 1224.25 2206.06 1224.25 2237 997.375 2267.94 1224.25 2319.5 1224.25 2319.5 949.25 2288.56 949.25 2288.56 935.5 2319.5 935.5ZM2199.19 949.25 2199.19 935.5 2230.13 935.5 2230.13 949.25 2199.19 949.25ZM2274.81 949.25 2243.88 949.25 2243.88 935.5 2274.81 935.5 2274.81 949.25Z" fill="#FFFFFF"/></g></g></g></g></svg>