<svg width="62" height="62" xmlns="http://www.w3.org/2000/svg" xmlns:xlink="http://www.w3.org/1999/xlink" overflow="hidden"><defs><clipPath id="clip0"><rect x="592" y="312" width="62" height="62"/></clipPath></defs><g clip-path="url(#clip0)" transform="translate(-592 -312)"><path d="M612.021 332.021 604.917 332.021 604.917 327.5 612.021 327.5 612.021 332.021ZM621.708 327.5 621.708 332.021 614.604 332.021 614.604 327.5 621.708 327.5ZM631.396 327.5 631.396 332.021 624.292 332.021 624.292 327.5 631.396 327.5ZM641.083 327.5 641.083 332.021 633.979 332.021 633.979 327.5 641.083 327.5ZM641.083 339.125 633.979 339.125 633.979 334.604 641.083 334.604 641.083 339.125ZM641.083 344.615 633.979 345.26 633.979 341.708 641.083 341.708 641.083 344.615ZM612.021 341.708 612.021 347.198 604.917 347.844 604.917 341.708 612.021 341.708ZM612.021 339.125 604.917 339.125 604.917 334.604 612.021 334.604 612.021 339.125ZM621.708 339.125 614.604 339.125 614.604 334.604 621.708 334.604 621.708 339.125ZM624.292 339.125 624.292 334.604 631.396 334.604 631.396 339.125 624.292 339.125ZM621.708 346.358 614.604 347.004 614.604 341.708 621.708 341.708 621.708 346.358ZM624.292 341.708 631.396 341.708 631.396 345.454 624.292 346.1 624.292 341.708ZM644.958 348.167 644.958 323.625 604.917 323.625 604.917 322.979C604.917 319.75 602.333 317.167 599.104 317.167 598.006 317.167 597.167 318.006 597.167 319.104 597.167 320.202 598.006 321.042 599.104 321.042 600.202 321.042 601.042 321.881 601.042 322.979L601.042 355.271C601.042 358.5 603.625 361.083 606.854 361.083L608.792 361.083 637.208 361.083 643.021 361.083C644.119 361.083 644.958 360.244 644.958 359.146 644.958 358.048 644.119 357.208 643.021 357.208L606.854 357.208C605.756 357.208 604.917 356.369 604.917 355.271L604.917 351.719 644.958 348.167Z" fill="#FFFFFF"/><path d="M612.667 364.958C612.667 367.098 610.932 368.833 608.792 368.833 606.652 368.833 604.917 367.098 604.917 364.958 604.917 362.818 606.652 361.083 608.792 361.083 610.932 361.083 612.667 362.818 612.667 364.958Z" fill="#FFFFFF"/><path d="M641.083 364.958C641.083 367.098 639.348 368.833 637.208 368.833 635.068 368.833 633.333 367.098 633.333 364.958 633.333 362.818 635.068 361.083 637.208 361.083 639.348 361.083 641.083 362.818 641.083 364.958Z" fill="#FFFFFF"/></g></svg>