<svg width="96" height="96" xmlns="http://www.w3.org/2000/svg" xmlns:xlink="http://www.w3.org/1999/xlink" overflow="hidden"><defs><clipPath id="clip0"><rect x="592" y="312" width="96" height="96"/></clipPath></defs><g clip-path="url(#clip0)" transform="translate(-592 -312)"><path d="M671.93 346.68 635.93 355.21 635.93 385C633.922 384.6 631.842 384.777 629.93 385.51 625.59 387.09 622.93 390.71 623.93 393.6 624.93 396.49 629.34 397.6 633.68 395.99 637.6 394.57 639.84 390.99 639.84 388.77L639.84 359.92 667.84 353.31 667.84 378.41C665.789 377.997 663.662 378.177 661.71 378.93 657.27 380.56 654.53 384.29 655.61 387.28 656.69 390.27 661.16 391.37 665.61 389.75 669.37 388.4 671.87 385.61 672 383Z" fill="#FFFFFF"/><path d="M625.58 329.4C624.7 328.825 623.964 328.056 623.43 327.15L623.43 325.31C623.43 324.205 622.535 323.31 621.43 323.31 620.325 323.31 619.43 324.205 619.43 325.31L619.43 355.5C617.496 355.159 615.505 355.349 613.67 356.05 609.33 357.62 606.67 361.24 607.67 364.14 608.67 367.04 613.09 368.14 617.43 366.53 620.43 365.43 622.65 363.34 623.36 361.19L623.36 340.1C623.63 340.312 623.914 340.505 624.21 340.68 630.88 344.68 627.21 351 630.47 351.03 634.66 351.06 634.83 335.57 625.58 329.4Z" fill="#FFFFFF"/></g></svg>