<svg width="96" height="96" xmlns="http://www.w3.org/2000/svg" xmlns:xlink="http://www.w3.org/1999/xlink" overflow="hidden"><defs><clipPath id="clip0"><rect x="592" y="312" width="96" height="96"/></clipPath></defs><g clip-path="url(#clip0)" transform="translate(-592 -312)"><path d="M679.72 341.72C676.72 341.72 674.32 347.17 674.32 351.72 674.32 354.49 675.22 356.32 676.59 357.3 677.316 357.756 677.841 358.471 678.06 359.3L677.43 380.69C677.514 381.969 678.619 382.937 679.897 382.853 681.059 382.776 681.984 381.851 682.06 380.69L681.43 359.3C681.651 358.469 682.18 357.754 682.91 357.3 684.27 356.3 685.17 354.49 685.17 351.72 685.11 347.17 682.71 341.72 679.72 341.72Z" fill="#FFFFFF"/><path d="M606.24 341.72 605.24 341.72 605.24 352.72C605.24 353.04 604.98 353.3 604.66 353.3 604.34 353.3 604.08 353.04 604.08 352.72L604.08 341.72 602.57 341.72 602.57 352.72C602.57 353.04 602.31 353.3 601.99 353.3 601.67 353.3 601.41 353.04 601.41 352.72L601.41 341.72 599.87 341.72 599.87 352.72C599.87 353.04 599.61 353.3 599.29 353.3 598.97 353.3 598.71 353.04 598.71 352.72L598.71 341.72 597.71 341.72C597.027 345.012 596.639 348.359 596.55 351.72 596.55 354.5 597.45 356.33 598.81 357.31 599.538 357.767 600.066 358.481 600.29 359.31L599.7 380.68C599.7 381.961 600.739 383 602.02 383 603.301 383 604.34 381.961 604.34 380.68L603.71 359.27C603.931 358.442 604.456 357.728 605.18 357.27 606.55 356.27 607.45 354.46 607.45 351.68 607.294 348.335 606.89 345.005 606.24 341.72Z" fill="#FFFFFF"/><path d="M671.59 360.91 671.59 337.76C671.607 336.805 670.846 336.017 669.89 336 669.877 336 669.863 336 669.85 336 669.85 336 666.85 336.11 666.36 344.54L665.5 359.51C665.5 360.27 667.28 360.88 667.95 361.13L667.07 380.4C667.159 381.833 668.393 382.923 669.826 382.834 671.135 382.753 672.179 381.709 672.26 380.4Z" fill="#FFFFFF"/><path d="M636 332C621.088 332 609 344.088 609 359 609 373.912 621.088 386 636 386 650.912 386 663 373.912 663 359 663 344.088 650.912 332 636 332ZM636 380C624.402 380 615 370.598 615 359 615 347.402 624.402 338 636 338 647.598 338 657 347.402 657 359 657 370.598 647.598 380 636 380Z" fill="#FFFFFF"/><path d="M654 359C654 368.941 645.941 377 636 377 626.059 377 618 368.941 618 359 618 349.059 626.059 341 636 341 645.941 341 654 349.059 654 359Z" fill="#FFFFFF"/></g></svg>