<svg width="96" height="96" xmlns="http://www.w3.org/2000/svg" xmlns:xlink="http://www.w3.org/1999/xlink" overflow="hidden"><defs><clipPath id="clip0"><rect x="276" y="221" width="96" height="96"/></clipPath></defs><g clip-path="url(#clip0)" transform="translate(-276 -221)"><path d="M332 279 284 279 284 247 332 247 332 279ZM334 241 282 241C279.8 241 278 242.8 278 245L278 281C278 283.2 279.8 285 282 285L302 285 302 291 293 291 293 297 323 297 323 291 314 291 314 285 334 285C336.2 285 338 283.2 338 281L338 245C338 242.8 336.2 241 334 241Z" fill="#FFFFFF"/><path d="M366 251 346 251 346 245 366 245 366 251ZM366 261 346 261 346 255 366 255 366 261ZM356 291C354.3 291 353 289.7 353 288 353 286.3 354.3 285 356 285 357.7 285 359 286.3 359 288 359 289.7 357.7 291 356 291ZM366 241 346 241C343.8 241 342 242.8 342 245L342 293C342 295.2 343.8 297 346 297L366 297C368.2 297 370 295.2 370 293L370 245C370 242.8 368.2 241 366 241Z" fill="#FFFFFF"/></g></svg>