<?xml version="1.0" encoding="UTF-8"?>
<svg width="25px" height="25px" viewBox="0 0 25 25" version="1.1" xmlns="http://www.w3.org/2000/svg" xmlns:xlink="http://www.w3.org/1999/xlink">
    <title>instagram</title>
    <g id="instagram" stroke="none" stroke-width="1" fill="none" fill-rule="evenodd">
        <path d="M12.5,0 C19.4035594,0 25,5.59644063 25,12.5 C25,19.4035594 19.4035594,25 12.5,25 C5.59644063,25 0,19.4035594 0,12.5 C0,5.59644063 5.59644063,0 12.5,0 Z M12.5,1.2 C6.25918233,1.2 1.2,6.25918233 1.2,12.5 C1.2,18.7408177 6.25918233,23.8 12.5,23.8 C18.7408177,23.8 23.8,18.7408177 23.8,12.5 C23.8,6.25918233 18.7408177,1.2 12.5,1.2 Z" id="Oval" fill="#FFFFFF" fill-rule="nonzero"></path>
        <path d="M19.9375,9.4375 C19.875,8.625 19.75,8.125 19.5625,7.625 C19.4375,7.125 19.1875,6.6875 18.75,6.25 C18.3125,5.8125 17.9375,5.5625 17.4375,5.375 C16.9375,5.1875 16.4375,5.0625 15.625,5 C14.8125,5 14.5625,5 12.5,5 C10.4375,5 10.1875,5 9.4375,5.0625 C8.625,5.0625 8.0625,5.1875 7.5625,5.375 C7.125,5.5625 6.6875,5.8125 6.25,6.25 C5.8125,6.6875 5.5625,7.125 5.375,7.5625 C5.1875,8.0625 5.0625,8.625 5.0625,9.4375 C5,10.1875 5,10.4375 5,12.5 C5,14.5625 5,14.8125 5.0625,15.5625 C5.125,16.375 5.25,16.875 5.4375,17.375 C5.5625,17.875 5.8125,18.3125 6.25,18.75 C6.6875,19.1875 7.0625,19.4375 7.5625,19.625 C8.0625,19.8125 8.5625,19.9375 9.375,20 C10.1875,20 10.4375,20 12.5,20 C14.5625,20 14.8125,20 15.5625,19.9375 C16.375,19.875 16.875,19.75 17.375,19.5625 C17.875,19.375 18.3125,19.125 18.6875,18.6875 C19.0625,18.25 19.375,17.875 19.5625,17.375 C19.75,16.875 19.875,16.375 19.9375,15.5625 C20,14.8125 20,14.5625 20,12.5 C20,10.4375 20,10.1875 19.9375,9.4375 Z M18.625,15.5 C18.5625,16.25 18.5,16.625 18.375,16.875 C18.25,17.25 18.0625,17.5 17.8125,17.75 C17.5625,18 17.3125,18.1875 16.9375,18.3125 C16.6875,18.4375 16.25,18.5625 15.5625,18.5625 C14.75,18.625 14.5625,18.625 12.5625,18.625 C10.5625,18.625 10.3125,18.625 9.5625,18.5625 C8.8125,18.5 8.4375,18.4375 8.1875,18.3125 C7.8125,18.1875 7.5625,18 7.3125,17.75 C7.0625,17.5 6.875,17.25 6.75,16.875 C6.625,16.625 6.5,16.1875 6.5,15.5 C6.4375,14.6875 6.4375,14.5 6.4375,12.5 C6.4375,10.5 6.4375,10.25 6.5,9.5 C6.4375,8.75 6.5625,8.3125 6.625,8.0625 C6.75,7.6875 6.9375,7.4375 7.1875,7.1875 C7.4375,6.9375 7.6875,6.75 8.0625,6.625 C8.3125,6.5625 8.75,6.4375 9.5,6.375 C10.25,6.375 10.5,6.375 12.5,6.375 C14.5,6.375 14.75,6.375 15.5,6.4375 C16.25,6.5 16.625,6.5625 16.875,6.6875 C17.25,6.8125 17.5,7 17.75,7.25 C18,7.5 18.1875,7.75 18.3125,8.125 C18.4375,8.375 18.5625,8.8125 18.5625,9.5 C18.625,10.3125 18.625,10.5 18.625,12.5 C18.625,14.5 18.625,14.75 18.625,15.5 Z" id="Shape" fill="#FFFFFF" fill-rule="nonzero"></path>
        <path d="M12.5,8.75 C10.4375,8.75 8.75,10.4375 8.75,12.5 C8.75,14.5625 10.4375,16.25 12.5,16.25 C14.5625,16.25 16.25,14.5625 16.25,12.5 C16.25,10.4375 14.5625,8.75 12.5,8.75 Z M12.5,14.9375 C11.125,14.9375 10.0625,13.875 10.0625,12.5 C10.0625,11.125 11.125,10.0625 12.5,10.0625 C13.875,10.0625 14.9375,11.125 14.9375,12.5 C14.9375,13.875 13.875,14.9375 12.5,14.9375 Z" id="Shape" fill="#FFFFFF" fill-rule="nonzero"></path>
        <circle id="Oval" fill="#FFFFFF" fill-rule="nonzero" cx="16.5625" cy="8.75" r="1"></circle>
    </g>
</svg>